# xmcd CD database file
#
# Track frame offsets:
#	150
#	30612
#	45462
#	61162
#	74037
#	83687
#	105112
#	118700
#	129412
#	144212
#	156950
#	172875
#	191987
#	210175
#	225275
#	237150
#	248350
#	263862
#	276662
#	285737
#	300937
#	318137
#
# Disc length: 4388 seconds
#
# Revision: 2
# Processed by: cddbd v1.5.2PL0 Copyright (c) Steve Scherf et al.
# Submitted via: CDex 1.70beta2
#
DISCID=1e112216
DTITLE=Cash Johnny - Heroes and Friends Volume 1
DYEAR=1900
DGENRE=Country
TTITLE0=The Good, The Bad And The Two Cookie Kid
TTITLE1=Amazing Grace (w. Joanne Cash Yates)
TTITLE2=I Shall Be Free
TTITLE3=Silver-Haired Daddy Of Mine (w. Tommy Cash)
TTITLE4=What´s Good For You
TTITLE5=Forever Young
TTITLE6=The Death Of Me (w. Levon Helm)
TTITLE7=The Human Condition (Willie Nelson)
TTITLE8=Battle Of Nashville
TTITLE9=Get Rhythm (w. Martin Delray)
TTITLE10=Crazy Old Soldier (w. Ray Charles)
TTITLE11=Suffer Little Children (w. Glenn Campbell)
TTITLE12=Give Me Back My Job (w. Carl Perkins, Bono, Willie Nelson and Tom Petty)
TTITLE13=The Love That Never Failed
TTITLE14=Love Me Tender (w. Julie Andrews)
TTITLE15=Didn´t It Rain
TTITLE16=I Still Miss Someone (w. Earl Scruggs)
TTITLE17=Better Class Of Losers (w. John Schneider and Waylon Jennings)
TTITLE18=Jealous Loving Heart (w. Ernest Tubb)
TTITLE19=Doin´ My Time (w. Marty Stuart)
TTITLE20=Woodcarver (w. Sandy Kelly)
TTITLE21=Ragged Old Flag (Narrative)
EXTD=
EXTT0=
EXTT1=
EXTT2=
EXTT3=
EXTT4=
EXTT5=
EXTT6=
EXTT7=
EXTT8=
EXTT9=
EXTT10=
EXTT11=
EXTT12=
EXTT13=
EXTT14=
EXTT15=
EXTT16=
EXTT17=
EXTT18=
EXTT19=
EXTT20=
EXTT21=
PLAYORDER=
